<mxfile host="www.draw.io" modified="2020-02-24T05:21:59.108Z" agent="Mozilla/5.0 (Macintosh; Intel Mac OS X 10_14_6) AppleWebKit/537.36 (KHTML, like Gecko) Chrome/79.0.3945.130 Safari/537.36" etag="EBh1radltwcNsqFzyni6" version="12.7.4" type="github">
  <diagram name="Page-1" id="e7e014a7-5840-1c2e-5031-d8a46d1fe8dd">
    <mxGraphModel dx="1029" dy="708" grid="1" gridSize="10" guides="1" tooltips="1" connect="1" arrows="1" fold="1" page="1" pageScale="1" pageWidth="1169" pageHeight="826" background="#ffffff" math="0" shadow="0">
      <root>
        <mxCell id="0" />
        <mxCell id="1" parent="0" />
        <mxCell id="Ha5gHBab-pMtj6OjEtId-41" value="UNO Game" style="rounded=0;whiteSpace=wrap;html=1;" vertex="1" parent="1">
          <mxGeometry x="540" y="30" width="200" height="60" as="geometry" />
        </mxCell>
        <mxCell id="Ha5gHBab-pMtj6OjEtId-42" value="-players: String&lt;br&gt;-deck: String&lt;br&gt;-cards: int" style="rounded=0;whiteSpace=wrap;html=1;align=left;" vertex="1" parent="1">
          <mxGeometry x="540" y="80" width="200" height="110" as="geometry" />
        </mxCell>
        <mxCell id="Ha5gHBab-pMtj6OjEtId-43" value="-printGame()" style="rounded=0;whiteSpace=wrap;html=1;align=left;" vertex="1" parent="1">
          <mxGeometry x="540" y="190" width="200" height="70" as="geometry" />
        </mxCell>
        <mxCell id="Ha5gHBab-pMtj6OjEtId-54" style="edgeStyle=orthogonalEdgeStyle;rounded=0;orthogonalLoop=1;jettySize=auto;html=1;exitX=0.5;exitY=0;exitDx=0;exitDy=0;entryX=0.302;entryY=1.038;entryDx=0;entryDy=0;entryPerimeter=0;" edge="1" parent="1" source="Ha5gHBab-pMtj6OjEtId-44" target="Ha5gHBab-pMtj6OjEtId-43">
          <mxGeometry relative="1" as="geometry" />
        </mxCell>
        <mxCell id="Ha5gHBab-pMtj6OjEtId-44" value="Cards" style="rounded=0;whiteSpace=wrap;html=1;" vertex="1" parent="1">
          <mxGeometry x="200" y="320" width="200" height="60" as="geometry" />
        </mxCell>
        <mxCell id="Ha5gHBab-pMtj6OjEtId-45" value="-color: String&lt;br&gt;-number: int&lt;br&gt;-special character: String&lt;br&gt;-wild: Boolean" style="rounded=0;whiteSpace=wrap;html=1;align=left;" vertex="1" parent="1">
          <mxGeometry x="200" y="380" width="200" height="110" as="geometry" />
        </mxCell>
        <mxCell id="Ha5gHBab-pMtj6OjEtId-46" value="-getColor()&lt;br&gt;-setColor()&lt;br&gt;-getNumber()&lt;br&gt;-setNumber()&lt;br&gt;-getCharacter()&lt;br&gt;-setCharacter()&lt;br&gt;-getWild()&lt;br&gt;-setWild()" style="rounded=0;whiteSpace=wrap;html=1;align=left;" vertex="1" parent="1">
          <mxGeometry x="200" y="480" width="200" height="150" as="geometry" />
        </mxCell>
        <mxCell id="Ha5gHBab-pMtj6OjEtId-55" style="edgeStyle=orthogonalEdgeStyle;rounded=0;orthogonalLoop=1;jettySize=auto;html=1;exitX=0.5;exitY=0;exitDx=0;exitDy=0;entryX=0.5;entryY=1;entryDx=0;entryDy=0;" edge="1" parent="1" source="Ha5gHBab-pMtj6OjEtId-47" target="Ha5gHBab-pMtj6OjEtId-43">
          <mxGeometry relative="1" as="geometry" />
        </mxCell>
        <mxCell id="Ha5gHBab-pMtj6OjEtId-47" value="Players" style="rounded=0;whiteSpace=wrap;html=1;" vertex="1" parent="1">
          <mxGeometry x="540" y="320" width="200" height="60" as="geometry" />
        </mxCell>
        <mxCell id="Ha5gHBab-pMtj6OjEtId-48" value="-name: String&lt;br&gt;-hand of cards:&amp;nbsp;" style="rounded=0;whiteSpace=wrap;html=1;align=left;" vertex="1" parent="1">
          <mxGeometry x="540" y="370" width="200" height="110" as="geometry" />
        </mxCell>
        <mxCell id="Ha5gHBab-pMtj6OjEtId-49" value="+setName()&lt;br&gt;+setHand()&lt;br&gt;+resethand()&lt;br&gt;" style="rounded=0;whiteSpace=wrap;html=1;align=left;" vertex="1" parent="1">
          <mxGeometry x="540" y="480" width="200" height="70" as="geometry" />
        </mxCell>
        <mxCell id="Ha5gHBab-pMtj6OjEtId-56" style="edgeStyle=orthogonalEdgeStyle;rounded=0;orthogonalLoop=1;jettySize=auto;html=1;exitX=0.5;exitY=0;exitDx=0;exitDy=0;entryX=0.7;entryY=1;entryDx=0;entryDy=0;entryPerimeter=0;" edge="1" parent="1" source="Ha5gHBab-pMtj6OjEtId-50" target="Ha5gHBab-pMtj6OjEtId-43">
          <mxGeometry relative="1" as="geometry" />
        </mxCell>
        <mxCell id="Ha5gHBab-pMtj6OjEtId-50" value="Deck" style="rounded=0;whiteSpace=wrap;html=1;" vertex="1" parent="1">
          <mxGeometry x="880" y="320" width="200" height="60" as="geometry" />
        </mxCell>
        <mxCell id="Ha5gHBab-pMtj6OjEtId-51" value="-draw deck: boolean&lt;br&gt;-discard pile: boolean" style="rounded=0;whiteSpace=wrap;html=1;align=left;" vertex="1" parent="1">
          <mxGeometry x="880" y="380" width="200" height="110" as="geometry" />
        </mxCell>
        <mxCell id="Ha5gHBab-pMtj6OjEtId-52" value="+getCard()&lt;br&gt;+playCard()" style="rounded=0;whiteSpace=wrap;html=1;align=left;" vertex="1" parent="1">
          <mxGeometry x="880" y="480" width="200" height="70" as="geometry" />
        </mxCell>
      </root>
    </mxGraphModel>
  </diagram>
</mxfile>
